<svg width="10" height="5" viewBox="0 0 10 5" fill="none" xmlns="http://www.w3.org/2000/svg">
<path d="M9.0835 0.892607C9.06787 0.843492 9.05427 0.7931 9.03661 0.743985C8.99071 0.615385 8.91165 0.499458 8.80643 0.406545C8.70121 0.313632 8.57309 0.246627 8.43359 0.211507C8.29408 0.176388 8.14749 0.174248 8.00689 0.205278C7.86629 0.236308 7.73608 0.29954 7.62783 0.389337C7.59591 0.415489 7.56601 0.443554 7.53613 0.471619L5.08193 2.77683C5.05951 2.79724 5.03983 2.82148 5.01402 2.84955C4.98345 2.82276 4.96105 2.80298 4.93931 2.78257L2.45116 0.446742C2.29803 0.282732 2.08178 0.182568 1.85 0.168274C1.61822 0.153979 1.38988 0.226729 1.21523 0.370523C1.04057 0.514318 0.933936 0.717372 0.918714 0.935023C0.903491 1.15267 0.980964 1.36709 1.13409 1.5311C1.16126 1.56171 1.19044 1.59042 1.22033 1.61912L4.35582 4.56283C4.48299 4.69545 4.65287 4.78533 4.83956 4.81873C5.02625 4.85213 5.21945 4.82723 5.38964 4.74781C5.48401 4.7025 5.57022 4.64352 5.64506 4.57304C6.69928 3.58691 7.75257 2.5993 8.80498 1.61019C8.9458 1.47453 9.04245 1.3039 9.0835 1.11841V0.892607Z" fill="#8AFFCB"/>
</svg>
