<svg width="25" height="27" viewBox="0 0 25 27" fill="none" xmlns="http://www.w3.org/2000/svg">
<path fill-rule="evenodd" clip-rule="evenodd" d="M15.8005 18.2226L18.0614 20.4835V20.4844C18.1877 20.3087 18.3277 20.1431 18.4814 19.9894C18.6351 19.8366 18.7998 19.6957 18.9755 19.5685L16.7164 17.3076C16.5709 17.4659 16.4227 17.6214 16.2699 17.7761C16.1162 17.9307 15.9589 18.0771 15.8015 18.2226L15.8005 18.2226ZM24.234 25.7418C24.6896 25.2852 24.6896 24.5468 24.234 24.0912L20.6032 20.4604C20.1476 20.0048 19.4083 20.0048 18.9526 20.4604C18.497 20.9161 18.497 21.6554 18.9526 22.111L22.5843 25.7418C23.0409 26.1956 23.7774 26.1956 24.234 25.7418Z" fill="#686876"/>
<path d="M0.101562 10.2201C0.101562 12.6874 1.08182 15.0535 2.82604 16.7981C4.57148 18.5405 6.93574 19.5187 9.4025 19.5187C11.8681 19.5187 14.2336 18.5405 15.979 16.7981C17.7232 15.0534 18.7023 12.6874 18.7023 10.2201C18.7023 7.75269 17.7232 5.38663 15.979 3.64197C14.2347 1.89732 11.8693 0.917969 9.4025 0.917969C6.93574 0.917969 4.57027 1.89732 2.82604 3.64197C1.08182 5.38666 0.101562 7.75269 0.101562 10.2201Z" fill="#686876"/>
</svg>
